<svg width="38" height="17" viewBox="0 0 38 17" fill="none" xmlns="http://www.w3.org/2000/svg">
<path d="M3.99345 5.12482C4.68201 5.12482 5.28373 5.26129 5.7986 5.53424C6.31347 5.80718 6.71048 6.19178 6.98963 6.68805C7.27498 7.1781 7.41765 7.7457 7.41765 8.39084C7.41765 9.02978 7.27498 9.59738 6.98963 10.0936C6.71048 10.5899 6.31037 10.9745 5.7893 11.2474C5.27443 11.5204 4.67581 11.6569 3.99345 11.6569H1.54626V5.12482H3.99345ZM3.8911 10.2797C4.49281 10.2797 4.96116 10.1153 5.29614 9.78658C5.63111 9.4578 5.7986 8.99256 5.7986 8.39084C5.7986 7.78912 5.63111 7.32078 5.29614 6.9858C4.96116 6.65083 4.49281 6.48334 3.8911 6.48334H3.1374V10.2797H3.8911ZM7.99049 9.05149C7.99049 8.51801 8.08974 8.04966 8.28824 7.64645C8.49295 7.24324 8.769 6.93307 9.11638 6.71596C9.46376 6.49885 9.85147 6.39029 10.2795 6.39029C10.6455 6.39029 10.965 6.46473 11.2379 6.61361C11.517 6.76248 11.7311 6.95789 11.8799 7.19981V6.46473H13.4711V11.6569H11.8799V10.9218C11.7249 11.1637 11.5077 11.3591 11.2286 11.508C10.9556 11.6569 10.6362 11.7313 10.2702 11.7313C9.84836 11.7313 9.46376 11.6227 9.11638 11.4056C8.769 11.1823 8.49295 10.869 8.28824 10.4658C8.08974 10.0564 7.99049 9.58497 7.99049 9.05149ZM11.8799 9.06079C11.8799 8.66379 11.7683 8.35052 11.545 8.121C11.3278 7.89148 11.0611 7.77672 10.7447 7.77672C10.4284 7.77672 10.1585 7.89148 9.93521 8.121C9.7181 8.34432 9.60954 8.65448 9.60954 9.05149C9.60954 9.4485 9.7181 9.76486 9.93521 10.0006C10.1585 10.2301 10.4284 10.3449 10.7447 10.3449C11.0611 10.3449 11.3278 10.2301 11.545 10.0006C11.7683 9.77107 11.8799 9.4578 11.8799 9.06079ZM17.7859 6.4089C18.3938 6.4089 18.8776 6.6074 19.2374 7.00441C19.6034 7.39522 19.7864 7.9349 19.7864 8.62346V11.6569H18.2046V8.83748C18.2046 8.49009 18.1146 8.22025 17.9347 8.02795C17.7548 7.83565 17.5129 7.7395 17.2089 7.7395C16.905 7.7395 16.6631 7.83565 16.4832 8.02795C16.3033 8.22025 16.2133 8.49009 16.2133 8.83748V11.6569H14.6222V6.46473H16.2133V7.15329C16.3746 6.92377 16.5917 6.74387 16.8647 6.61361C17.1376 6.47713 17.4447 6.4089 17.7859 6.4089ZM20.5757 9.05149C20.5757 8.51801 20.675 8.04966 20.8735 7.64645C21.0782 7.24324 21.3542 6.93307 21.7016 6.71596C22.049 6.49885 22.4367 6.39029 22.8647 6.39029C23.2307 6.39029 23.5502 6.46473 23.8231 6.61361C24.1023 6.76248 24.3163 6.95789 24.4652 7.19981V6.46473H26.0563V11.6569H24.4652V10.9218C24.3101 11.1637 24.093 11.3591 23.8138 11.508C23.5409 11.6569 23.2214 11.7313 22.8554 11.7313C22.4336 11.7313 22.049 11.6227 21.7016 11.4056C21.3542 11.1823 21.0782 10.869 20.8735 10.4658C20.675 10.0564 20.5757 9.58497 20.5757 9.05149ZM24.4652 9.06079C24.4652 8.66379 24.3535 8.35052 24.1302 8.121C23.9131 7.89148 23.6463 7.77672 23.33 7.77672C23.0136 7.77672 22.7438 7.89148 22.5204 8.121C22.3033 8.34432 22.1948 8.65448 22.1948 9.05149C22.1948 9.4485 22.3033 9.76486 22.5204 10.0006C22.7438 10.2301 23.0136 10.3449 23.33 10.3449C23.6463 10.3449 23.9131 10.2301 24.1302 10.0006C24.3535 9.77107 24.4652 9.4578 24.4652 9.06079ZM30.3711 6.4089C30.979 6.4089 31.4629 6.6074 31.8227 7.00441C32.1886 7.39522 32.3716 7.9349 32.3716 8.62346V11.6569H30.7898V8.83748C30.7898 8.49009 30.6999 8.22025 30.52 8.02795C30.3401 7.83565 30.0981 7.7395 29.7942 7.7395C29.4902 7.7395 29.2483 7.83565 29.0684 8.02795C28.8885 8.22025 28.7986 8.49009 28.7986 8.83748V11.6569H27.2074V6.46473H28.7986V7.15329C28.9598 6.92377 29.177 6.74387 29.4499 6.61361C29.7228 6.47713 30.0299 6.4089 30.3711 6.4089ZM34.9661 10.3449H37.2179V11.6569H33.1889V10.3914L35.3476 7.77672H33.2075V6.46473H37.1714V7.73019L34.9661 10.3449Z" fill="black"/>
<path d="M17.1769 9.10828V12.751H29.8198V9.10828" stroke="black" stroke-width="0.582828" stroke-linecap="round"/>
</svg>
